<?xml version="1.0" encoding="utf-8"?>
<!-- Generator: Adobe Illustrator 24.2.1, SVG Export Plug-In . SVG Version: 6.00 Build 0)  -->
<svg version="1.1" id="Layer_1" xmlns="http://www.w3.org/2000/svg" xmlns:xlink="http://www.w3.org/1999/xlink" x="0px" y="0px"
	 viewBox="0 0 200 200" style="enable-background:new 0 0 200 200;" xml:space="preserve">
<style type="text/css">
	.st0{fill:#333333;stroke:#FFFFFF;stroke-miterlimit:10;}
	.st1{fill:#00AEEF;}
	.st2{fill:#FFFFFF;}
	.st3{fill:#FF1C0E;}
	.st4{fill:#FFF200;}
	.st5{fill:none;stroke:#231F20;stroke-miterlimit:10;}
	.st6{fill:#3EA999;}
	.st7{fill:#FFFFFF;stroke:#FFFFFF;stroke-miterlimit:10;}
	.st8{fill:#BCBEC0;}
	.st9{fill:#FFFFFF;stroke:#231F20;stroke-miterlimit:10;}
	.st10{fill:#333333;}
	.st11{fill:#54667A;}
	.st12{fill:#FF0000;}
	.st13{fill:#06BE34;}
	.st14{fill:#EEEEEE;}
	.st15{clip-path:url(#SVGID_2_);fill:#3E82F1;}
	.st16{clip-path:url(#SVGID_4_);fill:#32A753;}
	.st17{clip-path:url(#SVGID_6_);fill:#F9BB00;}
	.st18{clip-path:url(#SVGID_8_);fill:#E74133;}
	.st19{fill:#FAE300;}
	.st20{fill:#391B1B;}
	.st21{fill:none;stroke:#231F20;stroke-width:5;stroke-miterlimit:10;}
	.st22{fill:#ED1C24;stroke:#231F20;stroke-width:5;stroke-miterlimit:10;}
	.st23{fill:none;stroke:#000000;stroke-width:5;stroke-miterlimit:10;}
	.st24{fill:#231F20;}
	.st25{fill:#FBB040;}
	.st26{fill:none;}
	.st27{fill:#FAD300;}
	.st28{fill:#3A5CA9;}
</style>
<g>
	<g>
		<g>
			<path class="st28" d="M187.2,197.6H12c-6.6,0-12-5.4-12-12V12C0,5.4,5.4,0,12,0h175.2c6.6,0,12,5.4,12,12v173.6
				C199.2,192.2,193.8,197.6,187.2,197.6z"/>
		</g>
		<g>
			<path class="st2" d="M138.1,72.2v19h30.2l-4,31h-26.2v76.2h-31.7v-76.2H80.9v-31h25.4v-27c0-46,61.9-33.3,61.9-33.3v27h-15.9
				C134.9,57.9,138.1,72.2,138.1,72.2z"/>
		</g>
	</g>
</g>
</svg>
