<?xml version="1.0" encoding="utf-8"?>
<!-- Generator: Adobe Illustrator 24.2.1, SVG Export Plug-In . SVG Version: 6.00 Build 0)  -->
<svg version="1.1" id="Layer_1" xmlns="http://www.w3.org/2000/svg" xmlns:xlink="http://www.w3.org/1999/xlink" x="0px" y="0px"
	 viewBox="0 0 200 200" style="enable-background:new 0 0 200 200;" xml:space="preserve">
<style type="text/css">
	.st0{fill:#333333;stroke:#FFFFFF;stroke-miterlimit:10;}
	.st1{fill:#00AEEF;}
	.st2{fill:#FFFFFF;}
	.st3{fill:#FF1C0E;}
	.st4{fill:#FFF200;}
	.st5{fill:none;stroke:#231F20;stroke-miterlimit:10;}
	.st6{fill:#3EA999;}
	.st7{fill:#FFFFFF;stroke:#FFFFFF;stroke-miterlimit:10;}
	.st8{fill:#BCBEC0;}
	.st9{fill:#FFFFFF;stroke:#231F20;stroke-miterlimit:10;}
	.st10{fill:#333333;}
	.st11{fill:#54667A;}
	.st12{fill:#FF0000;}
	.st13{fill:#06BE34;}
	.st14{fill:#EEEEEE;}
	.st15{clip-path:url(#SVGID_2_);fill:#3E82F1;}
	.st16{clip-path:url(#SVGID_4_);fill:#32A753;}
	.st17{clip-path:url(#SVGID_6_);fill:#F9BB00;}
	.st18{clip-path:url(#SVGID_8_);fill:#E74133;}
	.st19{fill:#FAE300;}
	.st20{fill:#391B1B;}
	.st21{fill:none;stroke:#231F20;stroke-width:5;stroke-miterlimit:10;}
	.st22{fill:#ED1C24;stroke:#231F20;stroke-width:5;stroke-miterlimit:10;}
	.st23{fill:none;stroke:#000000;stroke-width:5;stroke-miterlimit:10;}
	.st24{fill:#231F20;}
	.st25{fill:#FBB040;}
	.st26{fill:none;}
	.st27{fill:#FAD300;}
</style>
<g>
	<g>
		<path class="st12" d="M199.5,100v0.1c0,26.5-10.3,51.4-29,70.2c-18.7,18.8-43.4,29.2-69.7,29.2h-1.7c-26.2,0-51-10.4-69.7-29.2
			c-18.7-18.8-29-43.8-29-70.2V100c0-26.5,10.3-51.4,29-70.2C48.1,10.9,72.9,0.6,99.1,0.6h1.7c26.2,0,51,10.4,69.7,29.2
			C189.2,48.6,199.5,73.5,199.5,100z"/>
	</g>
	<g>
		<path class="st2" d="M161.8,68.8c-1.5-5.6-5.9-10-11.4-11.5c-10.1-2.7-50.4-2.7-50.4-2.7s-40.3,0-50.4,2.7
			c-5.6,1.5-9.9,5.9-11.4,11.5c-2.7,10.1-2.7,31.3-2.7,31.3s0,21.2,2.7,31.3c1.5,5.6,5.9,10,11.4,11.5c10.1,2.7,50.4,2.7,50.4,2.7
			s40.3,0,50.4-2.7c5.6-1.5,9.9-5.9,11.4-11.5c2.7-10.1,2.7-31.3,2.7-31.3S164.5,78.9,161.8,68.8z"/>
		<polygon class="st12" points="87.1,119.6 120.6,100.1 87.1,80.6 		"/>
	</g>
</g>
</svg>
